<svg xmlns="http://www.w3.org/2000/svg" width="20" height="20" viewBox="0 0 20 20" fill="none">
  <g clip-path="url(#clip0_289_1830)">
    <path fill-rule="evenodd" clip-rule="evenodd" d="M6.93853 2.60896C7.90914 2.20693 8.94942 2 10 2C11.0506 2 12.0909 2.20693 13.0615 2.60896C14.0321 3.011 14.914 3.60028 15.6569 4.34315C16.3997 5.08601 16.989 5.96793 17.391 6.93853C17.7931 7.90914 18 8.94943 18 10C18 11.0506 17.7931 12.0909 17.391 13.0615C16.989 14.0321 16.3997 14.914 15.6569 15.6569C14.914 16.3997 14.0321 16.989 13.0615 17.391C12.0909 17.7931 11.0506 18 10 18C8.94943 18 7.90914 17.7931 6.93853 17.391C5.96793 16.989 5.08601 16.3997 4.34315 15.6569C3.60028 14.914 3.011 14.0321 2.60896 13.0615C2.20693 12.0909 2 11.0506 2 10C2 8.94942 2.20693 7.90914 2.60896 6.93853C3.011 5.96793 3.60028 5.08601 4.34315 4.34315C5.08601 3.60028 5.96793 3.011 6.93853 2.60896ZM10 3C9.08075 3 8.1705 3.18106 7.32122 3.53284C6.47194 3.88463 5.70026 4.40024 5.05025 5.05025C4.40024 5.70026 3.88463 6.47194 3.53284 7.32122C3.18106 8.1705 3 9.08075 3 10C3 10.9193 3.18106 11.8295 3.53284 12.6788C3.88463 13.5281 4.40024 14.2997 5.05025 14.9497C5.70026 15.5998 6.47194 16.1154 7.32122 16.4672C8.17049 16.8189 9.08075 17 10 17C10.9193 17 11.8295 16.8189 12.6788 16.4672C13.5281 16.1154 14.2997 15.5998 14.9497 14.9497C15.5998 14.2997 16.1154 13.5281 16.4672 12.6788C16.8189 11.8295 17 10.9193 17 10C17 9.08075 16.8189 8.17049 16.4672 7.32122C16.1154 6.47194 15.5998 5.70026 14.9497 5.05025C14.2997 4.40024 13.5281 3.88463 12.6788 3.53284C11.8295 3.18106 10.9193 3 10 3Z" fill="#2C2669"/>
    <path fill-rule="evenodd" clip-rule="evenodd" d="M6.93853 2.60896C7.90914 2.20693 8.94942 2 10 2C11.0506 2 12.0909 2.20693 13.0615 2.60896C14.0321 3.011 14.914 3.60028 15.6569 4.34315C16.3997 5.08601 16.989 5.96793 17.391 6.93853C17.7931 7.90914 18 8.94943 18 10C18 11.0506 17.7931 12.0909 17.391 13.0615C16.989 14.0321 16.3997 14.914 15.6569 15.6569C14.914 16.3997 14.0321 16.989 13.0615 17.391C12.0909 17.7931 11.0506 18 10 18C8.94943 18 7.90914 17.7931 6.93853 17.391C5.96793 16.989 5.08601 16.3997 4.34315 15.6569C3.60028 14.914 3.011 14.0321 2.60896 13.0615C2.20693 12.0909 2 11.0506 2 10C2 8.94942 2.20693 7.90914 2.60896 6.93853C3.011 5.96793 3.60028 5.08601 4.34315 4.34315C5.08601 3.60028 5.96793 3.011 6.93853 2.60896ZM10 3C9.08075 3 8.1705 3.18106 7.32122 3.53284C6.47194 3.88463 5.70026 4.40024 5.05025 5.05025C4.40024 5.70026 3.88463 6.47194 3.53284 7.32122C3.18106 8.1705 3 9.08075 3 10C3 10.9193 3.18106 11.8295 3.53284 12.6788C3.88463 13.5281 4.40024 14.2997 5.05025 14.9497C5.70026 15.5998 6.47194 16.1154 7.32122 16.4672C8.17049 16.8189 9.08075 17 10 17C10.9193 17 11.8295 16.8189 12.6788 16.4672C13.5281 16.1154 14.2997 15.5998 14.9497 14.9497C15.5998 14.2997 16.1154 13.5281 16.4672 12.6788C16.8189 11.8295 17 10.9193 17 10C17 9.08075 16.8189 8.17049 16.4672 7.32122C16.1154 6.47194 15.5998 5.70026 14.9497 5.05025C14.2997 4.40024 13.5281 3.88463 12.6788 3.53284C11.8295 3.18106 10.9193 3 10 3Z" fill="black" fill-opacity="0.2"/>
    <path fill-rule="evenodd" clip-rule="evenodd" d="M10.8255 6.16696C11.2151 6.15545 11.6008 6.2493 11.9416 6.43868C12.2851 6.6295 12.5703 6.91015 12.7665 7.25058C12.9044 7.48981 12.8223 7.79555 12.5831 7.93347C12.3438 8.07138 12.0381 7.98925 11.9002 7.75001C11.7945 7.5667 11.641 7.41559 11.456 7.31283C11.271 7.21008 11.0616 7.15956 10.8502 7.16668L10.8333 7.16696H9.16667C8.85725 7.16696 8.5605 7.28988 8.34171 7.50867C8.12292 7.72746 8 8.02421 8 8.33363C8 8.64305 8.12292 8.93979 8.34171 9.15858C8.5605 9.37738 8.85725 9.50029 9.16667 9.50029H10.8333C11.408 9.50029 11.9591 9.72857 12.3654 10.1349C12.7717 10.5412 13 11.0923 13 11.667C13 12.2416 12.7717 12.7927 12.3654 13.199C11.9591 13.6054 11.408 13.8336 10.8333 13.8336H9.17453C8.78486 13.8451 8.39924 13.7513 8.05836 13.5619C7.71487 13.3711 7.42974 13.0904 7.23349 12.75C7.09558 12.5108 7.17771 12.205 7.41695 12.0671C7.65619 11.9292 7.96193 12.0113 8.09984 12.2506C8.20551 12.4339 8.35905 12.585 8.544 12.6878C8.72896 12.7905 8.93838 12.841 9.14984 12.8339L9.16667 12.8336H10.8333C11.1428 12.8336 11.4395 12.7107 11.6583 12.4919C11.8771 12.2731 12 11.9764 12 11.667C12 11.3575 11.8771 11.0608 11.6583 10.842C11.4395 10.6232 11.1428 10.5003 10.8333 10.5003H9.16667C8.59203 10.5003 8.04093 10.272 7.6346 9.86569C7.22827 9.45936 7 8.90826 7 8.33363C7 7.75899 7.22827 7.20789 7.6346 6.80156C8.04093 6.39523 8.59203 6.16696 9.16667 6.16696H10.8255Z" fill="#2C2669"/>
    <path fill-rule="evenodd" clip-rule="evenodd" d="M10.8255 6.16696C11.2151 6.15545 11.6008 6.2493 11.9416 6.43868C12.2851 6.6295 12.5703 6.91015 12.7665 7.25058C12.9044 7.48981 12.8223 7.79555 12.5831 7.93347C12.3438 8.07138 12.0381 7.98925 11.9002 7.75001C11.7945 7.5667 11.641 7.41559 11.456 7.31283C11.271 7.21008 11.0616 7.15956 10.8502 7.16668L10.8333 7.16696H9.16667C8.85725 7.16696 8.5605 7.28988 8.34171 7.50867C8.12292 7.72746 8 8.02421 8 8.33363C8 8.64305 8.12292 8.93979 8.34171 9.15858C8.5605 9.37738 8.85725 9.50029 9.16667 9.50029H10.8333C11.408 9.50029 11.9591 9.72857 12.3654 10.1349C12.7717 10.5412 13 11.0923 13 11.667C13 12.2416 12.7717 12.7927 12.3654 13.199C11.9591 13.6054 11.408 13.8336 10.8333 13.8336H9.17453C8.78486 13.8451 8.39924 13.7513 8.05836 13.5619C7.71487 13.3711 7.42974 13.0904 7.23349 12.75C7.09558 12.5108 7.17771 12.205 7.41695 12.0671C7.65619 11.9292 7.96193 12.0113 8.09984 12.2506C8.20551 12.4339 8.35905 12.585 8.544 12.6878C8.72896 12.7905 8.93838 12.841 9.14984 12.8339L9.16667 12.8336H10.8333C11.1428 12.8336 11.4395 12.7107 11.6583 12.4919C11.8771 12.2731 12 11.9764 12 11.667C12 11.3575 11.8771 11.0608 11.6583 10.842C11.4395 10.6232 11.1428 10.5003 10.8333 10.5003H9.16667C8.59203 10.5003 8.04093 10.272 7.6346 9.86569C7.22827 9.45936 7 8.90826 7 8.33363C7 7.75899 7.22827 7.20789 7.6346 6.80156C8.04093 6.39523 8.59203 6.16696 9.16667 6.16696H10.8255Z" fill="black" fill-opacity="0.2"/>
    <path fill-rule="evenodd" clip-rule="evenodd" d="M10 5.33301C10.2761 5.33301 10.5 5.55687 10.5 5.83301V14.1663C10.5 14.4425 10.2761 14.6663 10 14.6663C9.72386 14.6663 9.5 14.4425 9.5 14.1663V5.83301C9.5 5.55687 9.72386 5.33301 10 5.33301Z" fill="#2C2669"/>
    <path fill-rule="evenodd" clip-rule="evenodd" d="M10 5.33301C10.2761 5.33301 10.5 5.55687 10.5 5.83301V14.1663C10.5 14.4425 10.2761 14.6663 10 14.6663C9.72386 14.6663 9.5 14.4425 9.5 14.1663V5.83301C9.5 5.55687 9.72386 5.33301 10 5.33301Z" fill="black" fill-opacity="0.2"/>
  </g>
  <defs>
    <clipPath id="clip0_289_1830">
      <rect width="20" height="20" fill="white"/>
    </clipPath>
  </defs>
</svg>