<svg xmlns="http://www.w3.org/2000/svg" width="20" height="20" viewBox="0 0 20 20" fill="none">
  <path d="M4.66667 9.2222L2 7.66667L10 3L18 7.66667V13.3333L17 13.3333V8.16699L15.3333 9.2222V13.6742L15.1849 13.8576C13.9638 15.3666 12.0945 16.3333 10 16.3333C7.90545 16.3333 6.03619 15.3666 4.81509 13.8576L4.66667 13.6742V9.2222ZM5.5 9.66699V13.167C7 14.667 8.40741 15.167 10 15.167C11.5926 15.167 12.5 15.167 14.5 13.167V9.66699L10 12.3333L5.5 9.66699ZM4 7.66667L10 11.167L16 7.66667L10 4.16699L4 7.66667Z" fill="#2C2669"/>
  <path d="M4.66667 9.2222L2 7.66667L10 3L18 7.66667V13.3333L17 13.3333V8.16699L15.3333 9.2222V13.6742L15.1849 13.8576C13.9638 15.3666 12.0945 16.3333 10 16.3333C7.90545 16.3333 6.03619 15.3666 4.81509 13.8576L4.66667 13.6742V9.2222ZM5.5 9.66699V13.167C7 14.667 8.40741 15.167 10 15.167C11.5926 15.167 12.5 15.167 14.5 13.167V9.66699L10 12.3333L5.5 9.66699ZM4 7.66667L10 11.167L16 7.66667L10 4.16699L4 7.66667Z" fill="black" fill-opacity="0.2"/>
</svg>