<svg xmlns="http://www.w3.org/2000/svg" width="16" height="16" viewBox="0 0 16 16" fill="none">
  <g clip-path="url(#clip0_1_4476)">
    <path d="M3.03485 11.1929L12.05 3.06726L10.793 1.93422L1.77778 10.0599V11.1929H3.03485ZM3.77124 12.7953H0V9.3962L10.1644 0.234663C10.5116 -0.0782211 11.0744 -0.0782211 11.4215 0.234663L13.9357 2.50073C14.2828 2.81362 14.2828 3.32089 13.9357 3.63378L3.77124 12.7953ZM0 14.3976H16V16H0V14.3976Z" fill="#2C2669"/>
    <path d="M3.03485 11.1929L12.05 3.06726L10.793 1.93422L1.77778 10.0599V11.1929H3.03485ZM3.77124 12.7953H0V9.3962L10.1644 0.234663C10.5116 -0.0782211 11.0744 -0.0782211 11.4215 0.234663L13.9357 2.50073C14.2828 2.81362 14.2828 3.32089 13.9357 3.63378L3.77124 12.7953ZM0 14.3976H16V16H0V14.3976Z" fill="black" fill-opacity="0.2"/>
  </g>
  <defs>
    <clipPath id="clip0_1_4476">
      <rect width="16" height="16" fill="white"/>
    </clipPath>
  </defs>
</svg>