<svg xmlns="http://www.w3.org/2000/svg" width="20" height="20" viewBox="0 0 20 20" fill="none">
  <path fill-rule="evenodd" clip-rule="evenodd" d="M6.6619 3.54203L6.66659 3.54199C7.25044 3.54201 7.79538 3.80931 8.16798 4.2574L11.8064 8.6358C12.1201 9.02134 12.2914 9.50326 12.2914 10.0003C12.2914 10.4974 12.1201 10.9793 11.8063 11.3649L11.8023 11.3698L8.16994 15.7409C7.98861 15.9629 7.76066 16.1422 7.50225 16.2663C7.24281 16.3908 6.95906 16.4565 6.67128 16.4587L6.66659 16.4587C6.08274 16.4587 5.53781 16.1914 5.1652 15.7433L1.52682 11.3649C1.21304 10.9793 1.04175 10.4974 1.04175 10.0003C1.04175 9.50326 1.21307 9.02136 1.52685 8.63582L1.53087 8.63087L5.16324 4.25976C5.34457 4.03781 5.57252 3.85845 5.83093 3.73441C6.09037 3.60988 6.37413 3.54419 6.6619 3.54203ZM6.66891 4.79201C6.56602 4.79313 6.46462 4.81678 6.37184 4.86132C6.27835 4.90619 6.19593 4.97116 6.13046 5.05158L6.12648 5.05648L2.49459 9.42702C2.36336 9.58926 2.29175 9.79163 2.29175 10.0003C2.29175 10.2091 2.36336 10.4114 2.49459 10.5737L6.12632 14.9441C6.12627 14.944 6.12636 14.9441 6.12632 14.9441C6.27145 15.1185 6.46894 15.208 6.66427 15.2087C6.76716 15.2076 6.86856 15.1839 6.96134 15.1394C7.05483 15.0945 7.13726 15.0295 7.20272 14.9491L7.20671 14.9442L10.8386 10.5737C10.9698 10.4114 11.0414 10.2091 11.0414 10.0003C11.0414 9.79162 10.9698 9.58925 10.8386 9.42701L7.20686 5.05662C7.20682 5.05657 7.20691 5.05667 7.20686 5.05662C7.06173 4.88217 6.86424 4.79271 6.66891 4.79201Z" fill="#2C2669"/>
  <path fill-rule="evenodd" clip-rule="evenodd" d="M6.6619 3.54203L6.66659 3.54199C7.25044 3.54201 7.79538 3.80931 8.16798 4.2574L11.8064 8.6358C12.1201 9.02134 12.2914 9.50326 12.2914 10.0003C12.2914 10.4974 12.1201 10.9793 11.8063 11.3649L11.8023 11.3698L8.16994 15.7409C7.98861 15.9629 7.76066 16.1422 7.50225 16.2663C7.24281 16.3908 6.95906 16.4565 6.67128 16.4587L6.66659 16.4587C6.08274 16.4587 5.53781 16.1914 5.1652 15.7433L1.52682 11.3649C1.21304 10.9793 1.04175 10.4974 1.04175 10.0003C1.04175 9.50326 1.21307 9.02136 1.52685 8.63582L1.53087 8.63087L5.16324 4.25976C5.34457 4.03781 5.57252 3.85845 5.83093 3.73441C6.09037 3.60988 6.37413 3.54419 6.6619 3.54203ZM6.66891 4.79201C6.56602 4.79313 6.46462 4.81678 6.37184 4.86132C6.27835 4.90619 6.19593 4.97116 6.13046 5.05158L6.12648 5.05648L2.49459 9.42702C2.36336 9.58926 2.29175 9.79163 2.29175 10.0003C2.29175 10.2091 2.36336 10.4114 2.49459 10.5737L6.12632 14.9441C6.12627 14.944 6.12636 14.9441 6.12632 14.9441C6.27145 15.1185 6.46894 15.208 6.66427 15.2087C6.76716 15.2076 6.86856 15.1839 6.96134 15.1394C7.05483 15.0945 7.13726 15.0295 7.20272 14.9491L7.20671 14.9442L10.8386 10.5737C10.9698 10.4114 11.0414 10.2091 11.0414 10.0003C11.0414 9.79162 10.9698 9.58925 10.8386 9.42701L7.20686 5.05662C7.20682 5.05657 7.20691 5.05667 7.20686 5.05662C7.06173 4.88217 6.86424 4.79271 6.66891 4.79201Z" fill="black" fill-opacity="0.2"/>
  <path fill-rule="evenodd" clip-rule="evenodd" d="M13.7806 3.67559C14.052 3.46232 14.4449 3.50944 14.6582 3.78085L18.4768 8.64034C18.7883 9.02512 18.9583 9.5052 18.9583 10.0004C18.9583 10.4955 18.7883 10.9756 18.4768 11.3604L14.6582 16.2199C14.4449 16.4913 14.052 16.5384 13.7806 16.3251C13.5092 16.1118 13.4621 15.7189 13.6753 15.4475L17.5036 10.5758C17.636 10.4132 17.7083 10.21 17.7083 10.0004C17.7083 9.79071 17.636 9.58747 17.5037 9.42488L17.4969 9.41658L13.6753 4.55319C13.4621 4.28178 13.5092 3.88887 13.7806 3.67559Z" fill="#2C2669"/>
  <path fill-rule="evenodd" clip-rule="evenodd" d="M13.7806 3.67559C14.052 3.46232 14.4449 3.50944 14.6582 3.78085L18.4768 8.64034C18.7883 9.02512 18.9583 9.5052 18.9583 10.0004C18.9583 10.4955 18.7883 10.9756 18.4768 11.3604L14.6582 16.2199C14.4449 16.4913 14.052 16.5384 13.7806 16.3251C13.5092 16.1118 13.4621 15.7189 13.6753 15.4475L17.5036 10.5758C17.636 10.4132 17.7083 10.21 17.7083 10.0004C17.7083 9.79071 17.636 9.58747 17.5037 9.42488L17.4969 9.41658L13.6753 4.55319C13.4621 4.28178 13.5092 3.88887 13.7806 3.67559Z" fill="black" fill-opacity="0.2"/>
  <path fill-rule="evenodd" clip-rule="evenodd" d="M10.4471 3.67559C10.7185 3.46232 11.1114 3.50944 11.3247 3.78085L15.1434 8.64034C15.4548 9.02512 15.6248 9.5052 15.6248 10.0004C15.6248 10.4955 15.4548 10.9756 15.1433 11.3604L11.3247 16.2199C11.1114 16.4913 10.7185 16.5384 10.4471 16.3251C10.1757 16.1118 10.1286 15.7189 10.3419 15.4475L14.1701 10.5758C14.3025 10.4132 14.3748 10.21 14.3748 10.0004C14.3748 9.79071 14.3025 9.58747 14.1702 9.42488L14.1634 9.41658L10.3419 4.55319C10.1286 4.28178 10.1757 3.88887 10.4471 3.67559Z" fill="#2C2669"/>
  <path fill-rule="evenodd" clip-rule="evenodd" d="M10.4471 3.67559C10.7185 3.46232 11.1114 3.50944 11.3247 3.78085L15.1434 8.64034C15.4548 9.02512 15.6248 9.5052 15.6248 10.0004C15.6248 10.4955 15.4548 10.9756 15.1433 11.3604L11.3247 16.2199C11.1114 16.4913 10.7185 16.5384 10.4471 16.3251C10.1757 16.1118 10.1286 15.7189 10.3419 15.4475L14.1701 10.5758C14.3025 10.4132 14.3748 10.21 14.3748 10.0004C14.3748 9.79071 14.3025 9.58747 14.1702 9.42488L14.1634 9.41658L10.3419 4.55319C10.1286 4.28178 10.1757 3.88887 10.4471 3.67559Z" fill="black" fill-opacity="0.2"/>
</svg>