<svg xmlns="http://www.w3.org/2000/svg" width="20" height="20" viewBox="0 0 20 20" fill="none">
  <g clip-path="url(#clip0_289_1611)">
    <path fill-rule="evenodd" clip-rule="evenodd" d="M4.68329 3.0163C5.43031 2.26928 6.44349 1.84961 7.49993 1.84961C8.55638 1.84961 9.56956 2.26928 10.3166 3.0163C11.0636 3.76332 11.4833 4.7765 11.4833 5.83294C11.4833 6.88939 11.0636 7.90257 10.3166 8.64958C9.56956 9.3966 8.55638 9.81628 7.49993 9.81628C6.44349 9.81628 5.43031 9.3966 4.68329 8.64958C3.93627 7.90257 3.5166 6.88939 3.5166 5.83294C3.5166 4.7765 3.93627 3.76332 4.68329 3.0163ZM7.49993 3.14961C6.78827 3.14961 6.10575 3.43232 5.60253 3.93554C5.09931 4.43876 4.8166 5.12128 4.8166 5.83294C4.8166 6.54461 5.09931 7.22712 5.60253 7.73035C6.10575 8.23357 6.78827 8.51628 7.49993 8.51628C8.2116 8.51628 8.89412 8.23357 9.39734 7.73035C9.90056 7.22712 10.1833 6.54461 10.1833 5.83294C10.1833 5.12128 9.90056 4.43876 9.39734 3.93554C8.89412 3.43232 8.2116 3.14961 7.49993 3.14961Z" fill="#2C2669"/>
    <path fill-rule="evenodd" clip-rule="evenodd" d="M4.68329 3.0163C5.43031 2.26928 6.44349 1.84961 7.49993 1.84961C8.55638 1.84961 9.56956 2.26928 10.3166 3.0163C11.0636 3.76332 11.4833 4.7765 11.4833 5.83294C11.4833 6.88939 11.0636 7.90257 10.3166 8.64958C9.56956 9.3966 8.55638 9.81628 7.49993 9.81628C6.44349 9.81628 5.43031 9.3966 4.68329 8.64958C3.93627 7.90257 3.5166 6.88939 3.5166 5.83294C3.5166 4.7765 3.93627 3.76332 4.68329 3.0163ZM7.49993 3.14961C6.78827 3.14961 6.10575 3.43232 5.60253 3.93554C5.09931 4.43876 4.8166 5.12128 4.8166 5.83294C4.8166 6.54461 5.09931 7.22712 5.60253 7.73035C6.10575 8.23357 6.78827 8.51628 7.49993 8.51628C8.2116 8.51628 8.89412 8.23357 9.39734 7.73035C9.90056 7.22712 10.1833 6.54461 10.1833 5.83294C10.1833 5.12128 9.90056 4.43876 9.39734 3.93554C8.89412 3.43232 8.2116 3.14961 7.49993 3.14961Z" fill="black" fill-opacity="0.2"/>
    <path fill-rule="evenodd" clip-rule="evenodd" d="M5.83343 13.1496C5.12177 13.1496 4.43925 13.4323 3.93603 13.9355C3.4328 14.4388 3.1501 15.1213 3.1501 15.8329V17.4996C3.1501 17.8586 2.85908 18.1496 2.5001 18.1496C2.14111 18.1496 1.8501 17.8586 1.8501 17.4996V15.8329C1.8501 14.7765 2.26977 13.7633 3.01679 13.0163C3.76381 12.2693 4.77698 11.8496 5.83343 11.8496H9.16676C10.1223 11.8496 10.9995 12.1867 11.686 12.7468C11.9642 12.9738 12.0057 13.3832 11.7787 13.6614C11.5518 13.9395 11.1423 13.981 10.8642 13.7541C10.4007 13.3759 9.81125 13.1496 9.16676 13.1496H5.83343Z" fill="#2C2669"/>
    <path fill-rule="evenodd" clip-rule="evenodd" d="M5.83343 13.1496C5.12177 13.1496 4.43925 13.4323 3.93603 13.9355C3.4328 14.4388 3.1501 15.1213 3.1501 15.8329V17.4996C3.1501 17.8586 2.85908 18.1496 2.5001 18.1496C2.14111 18.1496 1.8501 17.8586 1.8501 17.4996V15.8329C1.8501 14.7765 2.26977 13.7633 3.01679 13.0163C3.76381 12.2693 4.77698 11.8496 5.83343 11.8496H9.16676C10.1223 11.8496 10.9995 12.1867 11.686 12.7468C11.9642 12.9738 12.0057 13.3832 11.7787 13.6614C11.5518 13.9395 11.1423 13.981 10.8642 13.7541C10.4007 13.3759 9.81125 13.1496 9.16676 13.1496H5.83343Z" fill="black" fill-opacity="0.2"/>
    <path fill-rule="evenodd" clip-rule="evenodd" d="M12.7036 2.44694C12.7926 2.09917 13.1467 1.88943 13.4945 1.97848C14.3513 2.19786 15.1108 2.69618 15.6531 3.39486C16.1954 4.09355 16.4898 4.95286 16.4898 5.83733C16.4898 6.7218 16.1954 7.58112 15.6531 8.2798C15.1108 8.97849 14.3513 9.4768 13.4945 9.69619C13.1467 9.78523 12.7926 9.57549 12.7036 9.22772C12.6145 8.87996 12.8243 8.52585 13.172 8.43681C13.7492 8.28903 14.2608 7.95334 14.6262 7.48268C14.9915 7.01201 15.1898 6.43315 15.1898 5.83733C15.1898 5.24152 14.9915 4.66265 14.6262 4.19198C14.2608 3.72132 13.7492 3.38564 13.172 3.23785C12.8243 3.14881 12.6145 2.79471 12.7036 2.44694Z" fill="#2C2669"/>
    <path fill-rule="evenodd" clip-rule="evenodd" d="M12.7036 2.44694C12.7926 2.09917 13.1467 1.88943 13.4945 1.97848C14.3513 2.19786 15.1108 2.69618 15.6531 3.39486C16.1954 4.09355 16.4898 4.95286 16.4898 5.83733C16.4898 6.7218 16.1954 7.58112 15.6531 8.2798C15.1108 8.97849 14.3513 9.4768 13.4945 9.69619C13.1467 9.78523 12.7926 9.57549 12.7036 9.22772C12.6145 8.87996 12.8243 8.52585 13.172 8.43681C13.7492 8.28903 14.2608 7.95334 14.6262 7.48268C14.9915 7.01201 15.1898 6.43315 15.1898 5.83733C15.1898 5.24152 14.9915 4.66265 14.6262 4.19198C14.2608 3.72132 13.7492 3.38564 13.172 3.23785C12.8243 3.14881 12.6145 2.79471 12.7036 2.44694Z" fill="black" fill-opacity="0.2"/>
    <path fill-rule="evenodd" clip-rule="evenodd" d="M12.6833 15.8336C12.6833 15.4746 12.9744 15.1836 13.3333 15.1836H18.3333C18.6923 15.1836 18.9833 15.4746 18.9833 15.8336C18.9833 16.1926 18.6923 16.4836 18.3333 16.4836H13.3333C12.9744 16.4836 12.6833 16.1926 12.6833 15.8336Z" fill="#2C2669"/>
    <path fill-rule="evenodd" clip-rule="evenodd" d="M12.6833 15.8336C12.6833 15.4746 12.9744 15.1836 13.3333 15.1836H18.3333C18.6923 15.1836 18.9833 15.4746 18.9833 15.8336C18.9833 16.1926 18.6923 16.4836 18.3333 16.4836H13.3333C12.9744 16.4836 12.6833 16.1926 12.6833 15.8336Z" fill="black" fill-opacity="0.2"/>
    <path fill-rule="evenodd" clip-rule="evenodd" d="M15.8333 12.6836C16.1923 12.6836 16.4833 12.9746 16.4833 13.3336V18.3336C16.4833 18.6926 16.1923 18.9836 15.8333 18.9836C15.4744 18.9836 15.1833 18.6926 15.1833 18.3336V13.3336C15.1833 12.9746 15.4744 12.6836 15.8333 12.6836Z" fill="#2C2669"/>
    <path fill-rule="evenodd" clip-rule="evenodd" d="M15.8333 12.6836C16.1923 12.6836 16.4833 12.9746 16.4833 13.3336V18.3336C16.4833 18.6926 16.1923 18.9836 15.8333 18.9836C15.4744 18.9836 15.1833 18.6926 15.1833 18.3336V13.3336C15.1833 12.9746 15.4744 12.6836 15.8333 12.6836Z" fill="black" fill-opacity="0.2"/>
  </g>
  <defs>
    <clipPath id="clip0_289_1611">
      <rect width="20" height="20" fill="white"/>
    </clipPath>
  </defs>
</svg>