<svg width="315" height="272" viewBox="0 0 315 272" fill="none" xmlns="http://www.w3.org/2000/svg">
<path d="M310.418 194.101C310.418 202.964 303.246 210.136 294.398 210.136H20.1637C11.3157 210.136 4.13281 202.964 4.13281 194.101V20.09C4.13281 11.235 11.3167 4.05902 20.1637 4.05902H294.398C303.246 4.05902 310.418 11.235 310.418 20.09V194.101Z" fill="#75CCF4" stroke="#27348B" stroke-width="7.7179" stroke-miterlimit="10"/>
<path d="M310.418 22.703H4.14062V191.492H310.418V22.703Z" fill="white" stroke="#27348B" stroke-width="7.7179" stroke-miterlimit="10" stroke-linecap="round" stroke-linejoin="round"/>
<path d="M186.219 210.137H128.344V253.535H186.219V210.137Z" fill="#75CCF4" stroke="#27348B" stroke-width="7.7179" stroke-miterlimit="10"/>
<path d="M205.272 253.535H185.592H157.276H128.967H109.287C109.287 253.535 96.7914 253.535 95.4824 267.422H157.275H219.084C217.769 253.535 205.272 253.535 205.272 253.535Z" fill="white" stroke="#27348B" stroke-width="7.7179" stroke-miterlimit="10" stroke-linecap="round" stroke-linejoin="round"/>
</svg>
