<svg xmlns="http://www.w3.org/2000/svg" width="20" height="20" viewBox="0 0 20 20" fill="none">
  <path fill-rule="evenodd" clip-rule="evenodd" d="M10.7885 3.74485C10.588 2.91838 9.41205 2.91838 9.21155 3.74485L9.21147 3.74518C8.8815 5.1021 7.33071 5.74534 6.13614 5.01904L6.13582 5.01885C5.40863 4.57613 4.57711 5.40852 5.01959 6.13484C5.18849 6.41193 5.2896 6.72499 5.31469 7.04853C5.33978 7.37216 5.2881 7.69713 5.16386 7.99701C5.03962 8.29689 4.84633 8.56319 4.59972 8.77425C4.35315 8.98527 4.06025 9.1351 3.74485 9.21155C2.91838 9.41205 2.91838 10.588 3.74485 10.7885L3.74519 10.7885C4.06037 10.8652 4.35302 11.0151 4.59936 11.2262C4.84569 11.4372 5.03875 11.7034 5.16285 12.0031C5.28694 12.3028 5.33857 12.6275 5.31354 12.9509C5.28851 13.2743 5.18752 13.5873 5.01878 13.8643C4.57621 14.5915 5.40855 15.4229 6.13484 14.9804C6.41193 14.8115 6.72498 14.7104 7.04853 14.6853C7.37216 14.6602 7.69713 14.7119 7.99701 14.8361C8.29689 14.9604 8.56319 15.1537 8.77425 15.4003C8.98527 15.6468 9.1351 15.9398 9.21155 16.2552C9.41205 17.0816 10.588 17.0816 10.7885 16.2552L10.7885 16.2548C10.8652 15.9396 11.0151 15.647 11.2262 15.4006C11.4372 15.1543 11.7034 14.9612 12.0031 14.8372C12.3028 14.7131 12.6275 14.6614 12.9509 14.6865C13.2743 14.7115 13.5873 14.8125 13.8643 14.9812C14.5915 15.4238 15.4229 14.5914 14.9804 13.8652C14.8115 13.5881 14.7104 13.275 14.6853 12.9515C14.6602 12.6278 14.7119 12.3029 14.8361 12.003C14.9604 11.7031 15.1537 11.4368 15.4003 11.2257C15.6468 11.0147 15.9398 10.8649 16.2552 10.7885C17.0816 10.588 17.0816 9.41205 16.2552 9.21155L16.2548 9.21147C15.9396 9.13482 15.647 8.98488 15.4006 8.77384C15.1543 8.56281 14.9612 8.29662 14.8372 7.99692C14.7131 7.69723 14.6614 7.37248 14.6865 7.04908C14.7115 6.72567 14.8125 6.41274 14.9812 6.13571C15.4238 5.40854 14.5914 4.57713 13.8652 5.01959C13.5881 5.18849 13.275 5.2896 12.9515 5.31469C12.6278 5.33978 12.3029 5.2881 12.003 5.16386C11.7031 5.03962 11.4368 4.84633 11.2257 4.59972C11.0147 4.35315 10.8649 4.06025 10.7885 3.74485ZM7.99686 3.44982C8.5066 1.34995 11.4937 1.35006 12.0032 3.45015L12.0033 3.45032C12.0333 3.57452 12.0923 3.68986 12.1754 3.78695C12.2585 3.88404 12.3634 3.96014 12.4814 4.00905C12.5995 4.05796 12.7274 4.07831 12.8548 4.06843C12.9823 4.05855 13.1055 4.01873 13.2146 3.9522L13.2148 3.95208C15.0602 2.82789 17.1728 4.9397 16.0488 6.78584L16.0488 6.78596C15.9823 6.89502 15.9426 7.01822 15.9327 7.14555C15.9229 7.27287 15.9432 7.40072 15.9921 7.51871C16.0409 7.6367 16.1169 7.74149 16.2139 7.82458C16.3108 7.90759 16.4259 7.96658 16.5498 7.99678C18.65 8.50629 18.65 11.4937 16.5498 12.0032L16.5497 12.0033C16.4255 12.0333 16.3101 12.0923 16.2131 12.1754C16.116 12.2585 16.0399 12.3634 15.991 12.4814C15.942 12.5995 15.9217 12.7274 15.9316 12.8548C15.9414 12.9822 15.9813 13.1055 16.0478 13.2146L16.0479 13.2148C17.1721 15.0602 15.0603 17.1728 13.2142 16.0488L13.214 16.0488C13.105 15.9823 12.9818 15.9426 12.8545 15.9327C12.7271 15.9229 12.5993 15.9432 12.4813 15.9921C12.3633 16.0409 12.2585 16.1169 12.1754 16.2139C12.0924 16.3108 12.0334 16.4259 12.0032 16.5498C11.4937 18.65 8.50629 18.65 7.99678 16.5498L7.99674 16.5497C7.96665 16.4255 7.90766 16.3101 7.82456 16.2131C7.74147 16.116 7.63663 16.0399 7.51857 15.991C7.40051 15.942 7.27257 15.9217 7.14516 15.9316C7.01775 15.9414 6.89447 15.9813 6.78536 16.0478L6.78516 16.0479C4.93982 17.1721 2.82721 15.0603 3.95115 13.2142L3.95122 13.214C4.01765 13.105 4.05741 12.9818 4.06727 12.8545C4.07712 12.7271 4.0568 12.5993 4.00794 12.4813C3.95908 12.3633 3.88308 12.2585 3.7861 12.1754C3.68921 12.0924 3.57411 12.0334 3.45015 12.0032C1.34995 11.4937 1.34995 8.50629 3.45015 7.99678L3.45032 7.99674C3.57452 7.96665 3.68986 7.90766 3.78695 7.82456C3.88404 7.74147 3.96014 7.63663 4.00905 7.51857C4.05796 7.40051 4.07831 7.27257 4.06843 7.14516C4.05855 7.01775 4.01873 6.89447 3.9522 6.78536L3.95208 6.78516C2.82795 4.93992 4.93946 2.82745 6.78553 3.95096C7.25752 4.23793 7.86658 3.98467 7.99678 3.45015" fill="#2C2669"/>
  <path fill-rule="evenodd" clip-rule="evenodd" d="M10.7885 3.74485C10.588 2.91838 9.41205 2.91838 9.21155 3.74485L9.21147 3.74518C8.8815 5.1021 7.33071 5.74534 6.13614 5.01904L6.13582 5.01885C5.40863 4.57613 4.57711 5.40852 5.01959 6.13484C5.18849 6.41193 5.2896 6.72499 5.31469 7.04853C5.33978 7.37216 5.2881 7.69713 5.16386 7.99701C5.03962 8.29689 4.84633 8.56319 4.59972 8.77425C4.35315 8.98527 4.06025 9.1351 3.74485 9.21155C2.91838 9.41205 2.91838 10.588 3.74485 10.7885L3.74519 10.7885C4.06037 10.8652 4.35302 11.0151 4.59936 11.2262C4.84569 11.4372 5.03875 11.7034 5.16285 12.0031C5.28694 12.3028 5.33857 12.6275 5.31354 12.9509C5.28851 13.2743 5.18752 13.5873 5.01878 13.8643C4.57621 14.5915 5.40855 15.4229 6.13484 14.9804C6.41193 14.8115 6.72498 14.7104 7.04853 14.6853C7.37216 14.6602 7.69713 14.7119 7.99701 14.8361C8.29689 14.9604 8.56319 15.1537 8.77425 15.4003C8.98527 15.6468 9.1351 15.9398 9.21155 16.2552C9.41205 17.0816 10.588 17.0816 10.7885 16.2552L10.7885 16.2548C10.8652 15.9396 11.0151 15.647 11.2262 15.4006C11.4372 15.1543 11.7034 14.9612 12.0031 14.8372C12.3028 14.7131 12.6275 14.6614 12.9509 14.6865C13.2743 14.7115 13.5873 14.8125 13.8643 14.9812C14.5915 15.4238 15.4229 14.5914 14.9804 13.8652C14.8115 13.5881 14.7104 13.275 14.6853 12.9515C14.6602 12.6278 14.7119 12.3029 14.8361 12.003C14.9604 11.7031 15.1537 11.4368 15.4003 11.2257C15.6468 11.0147 15.9398 10.8649 16.2552 10.7885C17.0816 10.588 17.0816 9.41205 16.2552 9.21155L16.2548 9.21147C15.9396 9.13482 15.647 8.98488 15.4006 8.77384C15.1543 8.56281 14.9612 8.29662 14.8372 7.99692C14.7131 7.69723 14.6614 7.37248 14.6865 7.04908C14.7115 6.72567 14.8125 6.41274 14.9812 6.13571C15.4238 5.40854 14.5914 4.57713 13.8652 5.01959C13.5881 5.18849 13.275 5.2896 12.9515 5.31469C12.6278 5.33978 12.3029 5.2881 12.003 5.16386C11.7031 5.03962 11.4368 4.84633 11.2257 4.59972C11.0147 4.35315 10.8649 4.06025 10.7885 3.74485ZM7.99686 3.44982C8.5066 1.34995 11.4937 1.35006 12.0032 3.45015L12.0033 3.45032C12.0333 3.57452 12.0923 3.68986 12.1754 3.78695C12.2585 3.88404 12.3634 3.96014 12.4814 4.00905C12.5995 4.05796 12.7274 4.07831 12.8548 4.06843C12.9823 4.05855 13.1055 4.01873 13.2146 3.9522L13.2148 3.95208C15.0602 2.82789 17.1728 4.9397 16.0488 6.78584L16.0488 6.78596C15.9823 6.89502 15.9426 7.01822 15.9327 7.14555C15.9229 7.27287 15.9432 7.40072 15.9921 7.51871C16.0409 7.6367 16.1169 7.74149 16.2139 7.82458C16.3108 7.90759 16.4259 7.96658 16.5498 7.99678C18.65 8.50629 18.65 11.4937 16.5498 12.0032L16.5497 12.0033C16.4255 12.0333 16.3101 12.0923 16.2131 12.1754C16.116 12.2585 16.0399 12.3634 15.991 12.4814C15.942 12.5995 15.9217 12.7274 15.9316 12.8548C15.9414 12.9822 15.9813 13.1055 16.0478 13.2146L16.0479 13.2148C17.1721 15.0602 15.0603 17.1728 13.2142 16.0488L13.214 16.0488C13.105 15.9823 12.9818 15.9426 12.8545 15.9327C12.7271 15.9229 12.5993 15.9432 12.4813 15.9921C12.3633 16.0409 12.2585 16.1169 12.1754 16.2139C12.0924 16.3108 12.0334 16.4259 12.0032 16.5498C11.4937 18.65 8.50629 18.65 7.99678 16.5498L7.99674 16.5497C7.96665 16.4255 7.90766 16.3101 7.82456 16.2131C7.74147 16.116 7.63663 16.0399 7.51857 15.991C7.40051 15.942 7.27257 15.9217 7.14516 15.9316C7.01775 15.9414 6.89447 15.9813 6.78536 16.0478L6.78516 16.0479C4.93982 17.1721 2.82721 15.0603 3.95115 13.2142L3.95122 13.214C4.01765 13.105 4.05741 12.9818 4.06727 12.8545C4.07712 12.7271 4.0568 12.5993 4.00794 12.4813C3.95908 12.3633 3.88308 12.2585 3.7861 12.1754C3.68921 12.0924 3.57411 12.0334 3.45015 12.0032C1.34995 11.4937 1.34995 8.50629 3.45015 7.99678L3.45032 7.99674C3.57452 7.96665 3.68986 7.90766 3.78695 7.82456C3.88404 7.74147 3.96014 7.63663 4.00905 7.51857C4.05796 7.40051 4.07831 7.27257 4.06843 7.14516C4.05855 7.01775 4.01873 6.89447 3.9522 6.78536L3.95208 6.78516C2.82795 4.93992 4.93946 2.82745 6.78553 3.95096C7.25752 4.23793 7.86658 3.98467 7.99678 3.45015" fill="black" fill-opacity="0.2"/>
  <path fill-rule="evenodd" clip-rule="evenodd" d="M7.58204 7.58228C8.16809 6.99623 8.96295 6.66699 9.79175 6.66699C10.6205 6.66699 11.4154 6.99623 12.0015 7.58228C12.5875 8.16833 12.9167 8.96319 12.9167 9.79199C12.9167 10.6208 12.5875 11.4156 12.0015 12.0017C11.4154 12.5878 10.6205 12.917 9.79175 12.917C8.96295 12.917 8.16809 12.5878 7.58204 12.0017C6.99599 11.4156 6.66675 10.6208 6.66675 9.79199C6.66675 8.96319 6.99599 8.16833 7.58204 7.58228ZM9.79175 7.91699C9.29447 7.91699 8.81755 8.11454 8.46592 8.46617C8.11429 8.8178 7.91675 9.29471 7.91675 9.79199C7.91675 10.2893 8.11429 10.7662 8.46592 11.1178C8.81755 11.4694 9.29447 11.667 9.79175 11.667C10.289 11.667 10.7659 11.4694 11.1176 11.1178C11.4692 10.7662 11.6667 10.2893 11.6667 9.79199C11.6667 9.29471 11.4692 8.8178 11.1176 8.46617C10.7659 8.11454 10.289 7.91699 9.79175 7.91699Z" fill="#2C2669"/>
  <path fill-rule="evenodd" clip-rule="evenodd" d="M7.58204 7.58228C8.16809 6.99623 8.96295 6.66699 9.79175 6.66699C10.6205 6.66699 11.4154 6.99623 12.0015 7.58228C12.5875 8.16833 12.9167 8.96319 12.9167 9.79199C12.9167 10.6208 12.5875 11.4156 12.0015 12.0017C11.4154 12.5878 10.6205 12.917 9.79175 12.917C8.96295 12.917 8.16809 12.5878 7.58204 12.0017C6.99599 11.4156 6.66675 10.6208 6.66675 9.79199C6.66675 8.96319 6.99599 8.16833 7.58204 7.58228ZM9.79175 7.91699C9.29447 7.91699 8.81755 8.11454 8.46592 8.46617C8.11429 8.8178 7.91675 9.29471 7.91675 9.79199C7.91675 10.2893 8.11429 10.7662 8.46592 11.1178C8.81755 11.4694 9.29447 11.667 9.79175 11.667C10.289 11.667 10.7659 11.4694 11.1176 11.1178C11.4692 10.7662 11.6667 10.2893 11.6667 9.79199C11.6667 9.29471 11.4692 8.8178 11.1176 8.46617C10.7659 8.11454 10.289 7.91699 9.79175 7.91699Z" fill="black" fill-opacity="0.2"/>
</svg>