<svg xmlns="http://www.w3.org/2000/svg" width="20" height="20" viewBox="0 0 20 20" fill="none">
  <g clip-path="url(#clip0_289_1813)">
    <path fill-rule="evenodd" clip-rule="evenodd" d="M7.18329 3.0163C7.93031 2.26928 8.94349 1.84961 9.99993 1.84961C11.0564 1.84961 12.0696 2.26928 12.8166 3.0163C13.5636 3.76332 13.9833 4.7765 13.9833 5.83294C13.9833 6.88939 13.5636 7.90257 12.8166 8.64958C12.0696 9.3966 11.0564 9.81628 9.99993 9.81628C8.94349 9.81628 7.93031 9.3966 7.18329 8.64958C6.43627 7.90257 6.0166 6.88939 6.0166 5.83294C6.0166 4.7765 6.43627 3.76332 7.18329 3.0163ZM9.99993 3.14961C9.28827 3.14961 8.60575 3.43232 8.10253 3.93554C7.59931 4.43876 7.3166 5.12128 7.3166 5.83294C7.3166 6.54461 7.59931 7.22712 8.10253 7.73035C8.60575 8.23357 9.28827 8.51628 9.99993 8.51628C10.7116 8.51628 11.3941 8.23357 11.8973 7.73035C12.4006 7.22712 12.6833 6.54461 12.6833 5.83294C12.6833 5.12128 12.4006 4.43876 11.8973 3.93554C11.3941 3.43232 10.7116 3.14961 9.99993 3.14961Z" fill="#2C2669"/>
    <path fill-rule="evenodd" clip-rule="evenodd" d="M7.18329 3.0163C7.93031 2.26928 8.94349 1.84961 9.99993 1.84961C11.0564 1.84961 12.0696 2.26928 12.8166 3.0163C13.5636 3.76332 13.9833 4.7765 13.9833 5.83294C13.9833 6.88939 13.5636 7.90257 12.8166 8.64958C12.0696 9.3966 11.0564 9.81628 9.99993 9.81628C8.94349 9.81628 7.93031 9.3966 7.18329 8.64958C6.43627 7.90257 6.0166 6.88939 6.0166 5.83294C6.0166 4.7765 6.43627 3.76332 7.18329 3.0163ZM9.99993 3.14961C9.28827 3.14961 8.60575 3.43232 8.10253 3.93554C7.59931 4.43876 7.3166 5.12128 7.3166 5.83294C7.3166 6.54461 7.59931 7.22712 8.10253 7.73035C8.60575 8.23357 9.28827 8.51628 9.99993 8.51628C10.7116 8.51628 11.3941 8.23357 11.8973 7.73035C12.4006 7.22712 12.6833 6.54461 12.6833 5.83294C12.6833 5.12128 12.4006 4.43876 11.8973 3.93554C11.3941 3.43232 10.7116 3.14961 9.99993 3.14961Z" fill="black" fill-opacity="0.2"/>
    <path fill-rule="evenodd" clip-rule="evenodd" d="M8.33343 13.1496C7.62177 13.1496 6.93925 13.4323 6.43603 13.9355C5.9328 14.4388 5.6501 15.1213 5.6501 15.8329V17.4996C5.6501 17.8586 5.35908 18.1496 5.0001 18.1496C4.64111 18.1496 4.3501 17.8586 4.3501 17.4996V15.8329C4.3501 14.7765 4.76977 13.7633 5.51679 13.0163C6.26381 12.2693 7.27698 11.8496 8.33343 11.8496H8.7501C9.10908 11.8496 9.4001 12.1406 9.4001 12.4996C9.4001 12.8586 9.10908 13.1496 8.7501 13.1496H8.33343Z" fill="#2C2669"/>
    <path fill-rule="evenodd" clip-rule="evenodd" d="M8.33343 13.1496C7.62177 13.1496 6.93925 13.4323 6.43603 13.9355C5.9328 14.4388 5.6501 15.1213 5.6501 15.8329V17.4996C5.6501 17.8586 5.35908 18.1496 5.0001 18.1496C4.64111 18.1496 4.3501 17.8586 4.3501 17.4996V15.8329C4.3501 14.7765 4.76977 13.7633 5.51679 13.0163C6.26381 12.2693 7.27698 11.8496 8.33343 11.8496H8.7501C9.10908 11.8496 9.4001 12.1406 9.4001 12.4996C9.4001 12.8586 9.10908 13.1496 8.7501 13.1496H8.33343Z" fill="black" fill-opacity="0.2"/>
    <path d="M14.8318 17.3482L13.0218 18.2965C12.9681 18.3245 12.9077 18.337 12.8473 18.3326C12.7869 18.3282 12.7289 18.3071 12.6798 18.2716C12.6307 18.2362 12.5924 18.1878 12.5692 18.1319C12.5461 18.0759 12.5389 18.0147 12.5485 17.9549L12.8943 15.9457L11.4302 14.5232C11.3865 14.481 11.3555 14.4273 11.3409 14.3683C11.3262 14.3093 11.3284 14.2474 11.3473 14.1896C11.3661 14.1318 11.4009 14.0805 11.4475 14.0415C11.4941 14.0025 11.5508 13.9774 11.611 13.969L13.6343 13.6757L14.5393 11.8482C14.5664 11.7938 14.6081 11.748 14.6598 11.716C14.7115 11.684 14.771 11.667 14.8318 11.667C14.8926 11.667 14.9522 11.684 15.0039 11.716C15.0555 11.748 15.0973 11.7938 15.1243 11.8482L16.0293 13.6757L18.0527 13.969C18.1127 13.9777 18.1691 14.0029 18.2155 14.042C18.262 14.081 18.2965 14.1323 18.3153 14.1899C18.3342 14.2476 18.3365 14.3093 18.322 14.3682C18.3075 14.4271 18.2769 14.4808 18.2335 14.5232L16.7693 15.9457L17.1143 17.954C17.1247 18.0139 17.118 18.0755 17.0951 18.1318C17.0722 18.1881 17.034 18.2369 16.9848 18.2726C16.9356 18.3082 16.8774 18.3294 16.8168 18.3336C16.7561 18.3379 16.6955 18.325 16.6418 18.2965L14.8318 17.3482Z" stroke="#2C2669" stroke-width="1.3" stroke-linecap="round" stroke-linejoin="round"/>
    <path d="M14.8318 17.3482L13.0218 18.2965C12.9681 18.3245 12.9077 18.337 12.8473 18.3326C12.7869 18.3282 12.7289 18.3071 12.6798 18.2716C12.6307 18.2362 12.5924 18.1878 12.5692 18.1319C12.5461 18.0759 12.5389 18.0147 12.5485 17.9549L12.8943 15.9457L11.4302 14.5232C11.3865 14.481 11.3555 14.4273 11.3409 14.3683C11.3262 14.3093 11.3284 14.2474 11.3473 14.1896C11.3661 14.1318 11.4009 14.0805 11.4475 14.0415C11.4941 14.0025 11.5508 13.9774 11.611 13.969L13.6343 13.6757L14.5393 11.8482C14.5664 11.7938 14.6081 11.748 14.6598 11.716C14.7115 11.684 14.771 11.667 14.8318 11.667C14.8926 11.667 14.9522 11.684 15.0039 11.716C15.0555 11.748 15.0973 11.7938 15.1243 11.8482L16.0293 13.6757L18.0527 13.969C18.1127 13.9777 18.1691 14.0029 18.2155 14.042C18.262 14.081 18.2965 14.1323 18.3153 14.1899C18.3342 14.2476 18.3365 14.3093 18.322 14.3682C18.3075 14.4271 18.2769 14.4808 18.2335 14.5232L16.7693 15.9457L17.1143 17.954C17.1247 18.0139 17.118 18.0755 17.0951 18.1318C17.0722 18.1881 17.034 18.2369 16.9848 18.2726C16.9356 18.3082 16.8774 18.3294 16.8168 18.3336C16.7561 18.3379 16.6955 18.325 16.6418 18.2965L14.8318 17.3482Z" stroke="black" stroke-opacity="0.2" stroke-width="1.3" stroke-linecap="round" stroke-linejoin="round"/>
  </g>
  <defs>
    <clipPath id="clip0_289_1813">
      <rect width="20" height="20" fill="white"/>
    </clipPath>
  </defs>
</svg>