<svg xmlns="http://www.w3.org/2000/svg" width="16" height="16" viewBox="0 0 16 16" fill="none">
  <path d="M8.00016 2.66732C6.16779 2.66732 4.55022 3.59149 3.58978 5.00065H5.3335V6.33398H1.3335V2.33398H2.66683V4.00022C3.8827 2.38176 5.81859 1.33398 8.00016 1.33398C11.682 1.33398 14.6668 4.31875 14.6668 8.00065H13.3335C13.3335 5.05513 10.9457 2.66732 8.00016 2.66732ZM2.66683 8.00065C2.66683 10.9462 5.05464 13.334 8.00016 13.334C9.83256 13.334 11.4501 12.4098 12.4106 11.0007H10.6668V9.66732H14.6668V13.6673H13.3335V12.0011C12.1176 13.6195 10.1818 14.6673 8.00016 14.6673C4.31826 14.6673 1.3335 11.6825 1.3335 8.00065H2.66683Z" fill="#2C2669"/>
  <path d="M8.00016 2.66732C6.16779 2.66732 4.55022 3.59149 3.58978 5.00065H5.3335V6.33398H1.3335V2.33398H2.66683V4.00022C3.8827 2.38176 5.81859 1.33398 8.00016 1.33398C11.682 1.33398 14.6668 4.31875 14.6668 8.00065H13.3335C13.3335 5.05513 10.9457 2.66732 8.00016 2.66732ZM2.66683 8.00065C2.66683 10.9462 5.05464 13.334 8.00016 13.334C9.83256 13.334 11.4501 12.4098 12.4106 11.0007H10.6668V9.66732H14.6668V13.6673H13.3335V12.0011C12.1176 13.6195 10.1818 14.6673 8.00016 14.6673C4.31826 14.6673 1.3335 11.6825 1.3335 8.00065H2.66683Z" fill="black" fill-opacity="0.2"/>
</svg>